<?xml version="1.0" encoding="utf-8"?>
<!-- Generator: Adobe Illustrator 24.1.1, SVG Export Plug-In . SVG Version: 6.00 Build 0)  -->
<svg version="1.1" id="Capa_1" xmlns="http://www.w3.org/2000/svg" xmlns:xlink="http://www.w3.org/1999/xlink" x="0px" y="0px"
	 viewBox="0 0 768 768" style="enable-background:new 0 0 768 768;" xml:space="preserve">
<style type="text/css">
	.st0{fill:#E0E7ED;stroke:#3F3F3F;stroke-width:2;stroke-miterlimit:10;}
	.st1{fill:#3F3F3F;}
	.st2{fill:#12FFB7;stroke:#3F3F3F;stroke-width:0.75;stroke-miterlimit:10;}
</style>
<g>
	<g>
		<path class="st0" d="M577,210.9c-22.9-25.4-46.5-50.2-74-70.6c-34-25.4-75.3-42.8-118-44.2c-44-1.4-89.1,18.1-122.7,45.7
			c-30,24.6-54,55.6-77.9,86.2c-32.5,41.8-65.5,84.1-85.9,132.9S71.6,466.8,93,515.3c32.6,74,113.9,104.2,189.5,110
			c44.1,3.4,88.2-2.4,132.2-4.5c46-2.2,90-3.7,135-15.3c40.9-10.5,80.8-29.9,109.3-61.8c39.9-44.8,52-111.4,34.2-168.7
			c-17-54.6-57.3-98.3-95.4-140.9C590.8,226.3,584,218.6,577,210.9z"/>
		<path class="st1" d="M561.5,535.4c-49.3,4.3-95.3-16.8-143.7-16.4c-51.6,0.4-99.9,19.2-149,32.6c-15.7,4.3-32.2,7.7-48,4.1
			c-46-10.6-65.8-79.1-69-119.9c-2.6-33.3,5.2-68.3,26.6-94.6c25.8-31.9,65.9-42,104.5-49c59.3-10.8,121.6-16.1,182.3-9.5
			c35.9,3.9,73.4,9.1,105.4,26.7c65.9,36.3,67.6,126.1,39.7,187.6c-5.9,12.9-14,25.6-26.5,32.4C577,533.1,569.3,534.8,561.5,535.4z"
			/>
		<path class="st2" d="M294.6,389.6c-19.4,0-36.4,10.4-45.6,26c-1.6-0.7-3.3-1.4-4.9-2.1c-3.3-1.6-6.4-3.4-9.4-5.4
			c-0.3-0.3-0.7-0.5-1-0.7c-0.8-0.6-1.5-1.2-2.3-1.8c-1.5-1.2-3-2.5-4.4-3.8c-3.1-2.9-8.6-2.7-11.3,0.6c-2.8,3.4-2.7,8.3,0.6,11.3
			c7.7,7.2,16.9,12.8,26.7,16.6c-1,4-1.5,8.2-1.5,12.5c0,29.4,23.8,53.2,53.2,53.2c29.4,0,53.2-23.8,53.2-53.2
			C347.8,413.4,324,389.6,294.6,389.6z"/>
		<path class="st2" d="M485.1,383.5c19.4,0,36.4,10.4,45.6,26c1.6-0.7,3.3-1.4,4.9-2.1c3.3-1.6,6.4-3.4,9.4-5.4
			c0.3-0.3,0.7-0.5,1-0.7c0.8-0.6,1.5-1.2,2.3-1.8c1.5-1.2,3-2.5,4.4-3.8c3.1-2.9,8.6-2.7,11.3,0.6c2.8,3.4,2.7,8.3-0.6,11.3
			c-7.7,7.2-16.9,12.8-26.7,16.6c1,4,1.5,8.2,1.5,12.5c0,29.4-23.8,53.2-53.2,53.2c-29.4,0-53.2-23.8-53.2-53.2
			C432,407.3,455.8,383.5,485.1,383.5z"/>
	</g>
</g>
</svg>
